<?xml version="1.0" encoding="UTF-8"?>
<svg id="i_c_o_n_s" data-name="i c o n s" xmlns="http://www.w3.org/2000/svg" viewBox="0 0 18 18">
    <defs>
        <style>
            .cls-1 {
            fill: #50b9a8;
            }

            .cls-1, .cls-2, .cls-3, .cls-4, .cls-5, .cls-6, .cls-7, .cls-8, .cls-9, .cls-10 {
            stroke-width: 0px;
            }

            .cls-2 {
            fill: #76c5bd;
            }

            .cls-3 {
            fill: #2db299;
            }

            .cls-4 {
            fill: #39b5a1;
            }

            .cls-5 {
            fill: #2cb29a;
            }

            .cls-6 {
            fill: #3cb5a2;
            }

            .cls-7 {
            fill: #cbe7e7;
            }

            .cls-8 {
            fill: #a9d9d8;
            }

            .cls-9 {
            fill: #2eb29d;
            }

            .cls-10 {
            fill: #00957e;
            }
        </style>
    </defs>
    <path class="cls-10" d="M12.27083,7.60314c1.1457-.00221,2.25159.42024,3.10533,1.18551V1.54952c0-.36494-.29417-.66132-.65911-.66132H1.58796c-.36494,0-.66132.29417-.66132.65911v10.7647c0,.36494.29417.66132.65911.66132h6.08017c-.03539-.23445-.05308-.4689-.05308-.70556-.00221-2.57672,2.0857-4.66463,4.658-4.66463Z"/>
    <path class="cls-6" d="M5.33028,2.10025h-3.21371v2.03704h3.21371v-2.03704Z"/>
    <path class="cls-2" d="M9.74941,2.10025h-3.21371v2.03704h3.21371v-2.03704Z"/>
    <path class="cls-8" d="M5.33028,5.32723h-3.21371v2.03704h3.21371v-2.03704Z"/>
    <path class="cls-5" d="M5.33028,8.55421h-3.21371v2.00829h3.21371v-2.00829Z"/>
    <path class="cls-9" d="M9.74941,5.32723h-3.21371v2.03704h3.21371v-2.03704Z"/>
    <path class="cls-4" d="M14.17517,2.10025h-3.2115v2.03704h3.21371v-2.03704h-.00221Z"/>
    <path class="cls-3" d="M15.37395,12.3098v-3.52114c-.85374-.76527-1.95963-1.18772-3.10312-1.18551-2.57229,0-4.658,2.08791-4.658,4.66463,0,.23666.01769.47111.05308.70556h7.04892c.36273-.00221.65911-.29859.65911-.66353Z"/>
    <path class="cls-1" d="M15.37395,8.79087v3.52114c0,.36494-.29638.66132-.66132.66132h-7.04892c.3384,2.24053,2.27149,3.95908,4.60491,3.95908,2.57451-.00221,4.658-2.09013,4.658-4.66684.00442-1.32706-.56179-2.5922-1.55267-3.4747Z"/>
    <path class="cls-7" d="M14.66397,9.97195l-2.91954,2.91954-1.49958-1.5018-.89577.90019,1.49958,1.5018.95327.95549.89577-.90019,2.91954-2.91954-.95327-.95549Z"/>
</svg>