<svg version="1.1" id="Layer_1" xmlns="http://www.w3.org/2000/svg" xmlns:xlink="http://www.w3.org/1999/xlink" x="0px" y="0px" viewBox="0 0 543.9 155.2" style="enable-background:new 0 0 543.9 155.2;" xml:space="preserve">
 <style type="text/css">
  .st0{fill:#38C0F0;}
	.st1{opacity:0.5;fill:#38C0F0;enable-background:new    ;}
	.st2{opacity:0.4;fill:#38C0F0;enable-background:new    ;}
 </style>
 <g>
  <g>
   <path class="st0" d="M228.2,98.4c-6.9-0.1-13.6-2.2-19.3-6l3.5-5.3c5.7,3.6,10.9,5.4,16.7,5.4c6.8,0,10-2.6,10-5.7
			c0-8.9-28.9-3.6-28.9-17.7c0-6.9,6.9-12.3,18-12.3c7.5,0,13.9,2.8,17.7,6.6l-4.3,4.4c-3.8-3.2-8.6-5.1-13.5-5.1
			c-6.5,0-10.8,2.3-10.8,5.6c0,8.2,28.9,3.9,28.9,17.7C246.2,93.4,238.8,98.4,228.2,98.4z">
   </path>
   <path class="st0" d="M296.5,97l-4.4-9.7h-19.6l-4.3,9.7h-7.3l18.3-38.8h6.2L304,97H296.5z M282.1,65.9L274.8,82h14.8L282.1,65.9z">
   </path>
   <path class="st0" d="M321.4,97V58.1h7V91h26.4v6H321.4z">
   </path>
   <path class="st0" d="M390.4,98.4c-6.9-0.1-13.6-2.2-19.3-6l3.5-5.3c5.7,3.6,10.9,5.4,16.7,5.4c6.8,0,10-2.6,10-5.7
			c0-8.9-28.9-3.6-28.9-17.7c0-6.9,6.9-12.3,18-12.3c7.5,0,14,2.8,17.7,6.6l-4.3,4.4c-3.8-3.2-8.6-5.1-13.5-5.1
			c-6.5,0-10.9,2.3-10.9,5.6c0,8.2,28.9,3.9,28.9,17.7C408.4,93.4,401,98.4,390.4,98.4z">
   </path>
   <path class="st0" d="M427.9,97V58.1h7V97H427.9z">
   </path>
   <path class="st0" d="M463.7,64.1v11.1h18.1v5.7h-18.1V97h-7V58.1h31.1v6L463.7,64.1z">
   </path>
   <path class="st0" d="M526.7,81.4V97h-7V81.3l-17.5-23.2h8.2l13.1,18l12.4-18h8L526.7,81.4z">
   </path>
  </g>
  <path class="st0" d="M83.2,77.6L83.2,77.6z">
  </path>
  <polygon class="st0" points="83.2,77.6 83.2,77.6 83.2,77.6 	">
  </polygon>
  <path class="st1" d="M83.2,77.6L83.2,77.6L83.2,77.6L83.2,77.6z">
  </path>
  <path class="st2" d="M62.4,41.6c0-14.8,7.9-28.6,20.8-36C63.3-5.9,37.9,0.9,26.4,20.8c-3.6,6.3-5.6,13.5-5.6,20.8
		C33.7,34.2,49.5,34.2,62.4,41.6z">
  </path>
  <path class="st2" d="M160.8,56.8c-3.6-6.3-8.9-11.6-15.2-15.2c0,14.9-7.9,28.6-20.8,36l0,0c12.9,7.4,20.8,21.1,20.8,36l0,0
		C165.4,102.1,172.2,76.7,160.8,56.8z">
  </path>
  <path class="st2" d="M98.4,20.8c3.7,6.3,5.6,13.5,5.6,20.8l0,0c12.9-7.4,28.7-7.4,41.6,0C145.6,18.6,127,0,104,0
		c-7.3,0-14.5,1.9-20.8,5.6l0,0C89.5,9.2,94.8,14.5,98.4,20.8z">
  </path>
  <polygon class="st1" points="83.2,77.6 83.2,77.6 83.2,77.6 83.2,77.6 	">
  </polygon>
  <path class="st1" d="M62.4,41.6c12.9,7.4,20.8,21.2,20.8,36l0,0c0-14.9,7.9-28.6,20.8-36c0-14.9-7.9-28.6-20.8-36
		C70.3,13,62.4,26.7,62.4,41.6z">
  </path>
  <path class="st2" d="M62.4,41.6c12.9,7.4,20.8,21.2,20.8,36l0,0c0-14.9,7.9-28.6,20.8-36c0-14.9-7.9-28.6-20.8-36
		C70.3,13,62.4,26.7,62.4,41.6z">
  </path>
  <path class="st1" d="M104,41.6L104,41.6c0,14.9-7.9,28.6-20.8,36l0,0c12.9-7.4,28.7-7.4,41.6,0l0,0c12.9-7.4,20.8-21.1,20.8-36
		C132.7,34.1,116.9,34.1,104,41.6z">
  </path>
  <path class="st2" d="M104,41.6L104,41.6c0,14.9-7.9,28.6-20.8,36l0,0c12.9-7.4,28.7-7.4,41.6,0l0,0c12.9-7.4,20.8-21.1,20.8-36
		C132.7,34.1,116.9,34.1,104,41.6z">
  </path>
  <path class="st1" d="M104,41.6c-12.9,7.4-20.8,21.1-20.8,36C96.1,70.2,104,56.4,104,41.6z">
  </path>
  <path class="st1" d="M104,41.6c-12.9,7.4-20.8,21.1-20.8,36C96.1,70.2,104,56.4,104,41.6z">
  </path>
  <path class="st0" d="M104,41.6c-12.9,7.4-20.8,21.1-20.8,36C96.1,70.2,104,56.4,104,41.6z">
  </path>
  <path class="st1" d="M83.2,77.6L83.2,77.6L83.2,77.6L83.2,77.6z">
  </path>
  <path class="st2" d="M104,113.6c0,14.8-7.9,28.6-20.8,36c19.9,11.5,45.3,4.7,56.8-15.2c3.7-6.3,5.6-13.5,5.6-20.8
		C132.7,121,116.9,121,104,113.6z">
  </path>
  <path class="st1" d="M124.8,77.6C111.9,85,96,85,83.2,77.6l0,0C96,85,104,98.7,104,113.6c12.9,7.4,28.7,7.4,41.6,0
		C145.5,98.7,137.6,85,124.8,77.6z">
  </path>
  <path class="st2" d="M124.8,77.6C111.9,85,96,85,83.2,77.6l0,0C96,85,104,98.7,104,113.6c12.9,7.4,28.7,7.4,41.6,0
		C145.5,98.7,137.6,85,124.8,77.6z">
  </path>
  <polygon class="st1" points="83.2,77.6 83.2,77.6 83.2,77.6 	">
  </polygon>
  <polygon class="st1" points="83.2,77.6 83.2,77.6 83.2,77.6 	">
  </polygon>
  <path class="st1" d="M83.2,77.6L83.2,77.6c12.9,7.4,28.7,7.4,41.6,0C111.9,70.2,96,70.2,83.2,77.6z">
  </path>
  <path class="st1" d="M83.2,77.6L83.2,77.6c12.9,7.4,28.7,7.4,41.6,0C111.9,70.2,96,70.2,83.2,77.6z">
  </path>
  <path class="st0" d="M83.2,77.6L83.2,77.6c12.9,7.4,28.7,7.4,41.6,0C111.9,70.2,96,70.2,83.2,77.6z">
  </path>
  <path class="st2" d="M68,134.4c-3.7-6.3-5.6-13.5-5.6-20.8l0,0c-12.9,7.4-28.7,7.4-41.6,0c0,23,18.6,41.6,41.6,41.6
		c7.3,0,14.5-1.9,20.8-5.6l0,0C76.9,146,71.6,140.7,68,134.4z">
  </path>
  <path class="st1" d="M104,113.6c-12.9-7.4-20.8-21.2-20.8-36l0,0c0,14.8-7.9,28.6-20.8,36c0,14.9,7.9,28.6,20.8,36
		C96.1,142.1,104,128.4,104,113.6z">
  </path>
  <path class="st2" d="M104,113.6c-12.9-7.4-20.8-21.2-20.8-36l0,0c0,14.8-7.9,28.6-20.8,36c0,14.9,7.9,28.6,20.8,36
		C96.1,142.1,104,128.4,104,113.6z">
  </path>
  <path class="st1" d="M104,113.6c0-14.9-7.9-28.6-20.8-36C83.2,92.4,91.1,106.2,104,113.6z">
  </path>
  <path class="st1" d="M104,113.6c0-14.9-7.9-28.6-20.8-36C83.2,92.4,91.1,106.2,104,113.6z">
  </path>
  <path class="st0" d="M104,113.6c0-14.9-7.9-28.6-20.8-36C83.2,92.4,91.1,106.2,104,113.6z">
  </path>
  <path class="st2" d="M41.6,77.6L41.6,77.6c-12.9-7.4-20.8-21.1-20.8-36l0,0C0.9,53.1-5.9,78.5,5.6,98.4c3.6,6.3,8.9,11.6,15.2,15.2
		C20.8,98.7,28.7,85,41.6,77.6z">
  </path>
  <polygon class="st1" points="83.2,77.6 83.2,77.6 83.2,77.6 83.2,77.6 	">
  </polygon>
  <path class="st1" d="M41.6,77.6c12.9-7.4,28.7-7.4,41.6,0l0,0l0,0c-12.9-7.4-20.8-21.2-20.8-36c-12.9-7.4-28.7-7.4-41.6,0
		C20.8,56.4,28.7,70.2,41.6,77.6z">
  </path>
  <path class="st2" d="M41.6,77.6c12.9-7.4,28.7-7.4,41.6,0l0,0l0,0c-12.9-7.4-20.8-21.2-20.8-36c-12.9-7.4-28.7-7.4-41.6,0
		C20.8,56.4,28.7,70.2,41.6,77.6z">
  </path>
  <path class="st1" d="M62.4,41.6c0,14.8,7.9,28.6,20.8,36C83.2,62.7,75.2,49,62.4,41.6z">
  </path>
  <path class="st1" d="M62.4,41.6c0,14.8,7.9,28.6,20.8,36C83.2,62.7,75.2,49,62.4,41.6z">
  </path>
  <path class="st0" d="M62.4,41.6c0,14.8,7.9,28.6,20.8,36C83.2,62.7,75.2,49,62.4,41.6z">
  </path>
  <polygon class="st1" points="83.2,77.6 83.2,77.6 83.2,77.6 	">
  </polygon>
  <polygon class="st1" points="83.2,77.6 83.2,77.6 83.2,77.6 	">
  </polygon>
  <path class="st1" d="M62.4,113.6L62.4,113.6c0-14.9,7.9-28.6,20.8-36l0,0c-12.9,7.4-28.7,7.4-41.6,0l0,0
		c-12.9,7.4-20.8,21.1-20.8,36C33.6,121,49.5,121,62.4,113.6z">
  </path>
  <path class="st2" d="M62.4,113.6L62.4,113.6c0-14.9,7.9-28.6,20.8-36l0,0c-12.9,7.4-28.7,7.4-41.6,0l0,0
		c-12.9,7.4-20.8,21.1-20.8,36C33.6,121,49.5,121,62.4,113.6z">
  </path>
  <path class="st1" d="M41.6,77.6c12.9,7.4,28.7,7.4,41.6,0C70.3,70.2,54.5,70.2,41.6,77.6z">
  </path>
  <path class="st1" d="M41.6,77.6c12.9,7.4,28.7,7.4,41.6,0C70.3,70.2,54.5,70.2,41.6,77.6z">
  </path>
  <path class="st0" d="M41.6,77.6c12.9,7.4,28.7,7.4,41.6,0C70.3,70.2,54.5,70.2,41.6,77.6z">
  </path>
  <path class="st1" d="M62.4,113.6c12.9-7.4,20.8-21.2,20.8-36l0,0C70.3,85,62.4,98.7,62.4,113.6z">
  </path>
  <path class="st1" d="M62.4,113.6c12.9-7.4,20.8-21.2,20.8-36l0,0C70.3,85,62.4,98.7,62.4,113.6z">
  </path>
  <path class="st0" d="M62.4,113.6c12.9-7.4,20.8-21.2,20.8-36l0,0C70.3,85,62.4,98.7,62.4,113.6z">
  </path>
 </g>
</svg>